<svg xmlns="http://www.w3.org/2000/svg" width="980" height="436" viewBox="0 0 980 436" role="img"><rect width="100%" height="100%" fill="#ffffff" /><text x="300" y="32" font-size="22" font-family="Arial, sans-serif" fill="#222">AreaDemand sensitivity for standardexemplet</text><text x="300" y="54" font-size="13" font-family="Arial, sans-serif" fill="#555">Total markyta for samma scenario och mix under olika AreaDemand-profiler</text><line x1="300" y1="386" x2="900" y2="386" stroke="#777" stroke-width="1"/><line x1="300.00" y1="70" x2="300.00" y2="386" stroke="#efefef" stroke-width="1"/><text x="300.00" y="406" text-anchor="middle" font-size="11" font-family="Arial, sans-serif" fill="#666">0</text><line x1="450.00" y1="70" x2="450.00" y2="386" stroke="#efefef" stroke-width="1"/><text x="450.00" y="406" text-anchor="middle" font-size="11" font-family="Arial, sans-serif" fill="#666">96</text><line x1="600.00" y1="70" x2="600.00" y2="386" stroke="#efefef" stroke-width="1"/><text x="600.00" y="406" text-anchor="middle" font-size="11" font-family="Arial, sans-serif" fill="#666">192</text><line x1="750.00" y1="70" x2="750.00" y2="386" stroke="#efefef" stroke-width="1"/><text x="750.00" y="406" text-anchor="middle" font-size="11" font-family="Arial, sans-serif" fill="#666">289</text><line x1="900.00" y1="70" x2="900.00" y2="386" stroke="#efefef" stroke-width="1"/><text x="900.00" y="406" text-anchor="middle" font-size="11" font-family="Arial, sans-serif" fill="#666">385</text><text x="288" y="99" text-anchor="end" font-size="12" font-family="Arial, sans-serif" fill="#333">Nøland [Power density]</text><rect x="300" y="78" width="3.81" height="32" rx="6" fill="#1f77b4" opacity="0.88"/><text x="311.81" y="99" font-size="11" font-family="Arial, sans-serif" fill="#333">2.4 km2</text><text x="395.81" y="99" font-size="11" font-family="Arial, sans-serif" fill="#777">fallback: 7</text><text x="288" y="143" text-anchor="end" font-size="12" font-family="Arial, sans-serif" fill="#333">Norway Specific (Kenawi et al, 2025) [Production density]</text><rect x="300" y="122" width="3.82" height="32" rx="6" fill="#e15759" opacity="0.88"/><text x="311.82" y="143" font-size="11" font-family="Arial, sans-serif" fill="#333">2.4 km2</text><text x="395.82" y="143" font-size="11" font-family="Arial, sans-serif" fill="#777">fallback: 5</text><text x="288" y="187" text-anchor="end" font-size="12" font-family="Arial, sans-serif" fill="#333">Global (Smil, 2016) [Production density]</text><rect x="300" y="166" width="3.82" height="32" rx="6" fill="#59a14f" opacity="0.88"/><text x="311.82" y="187" font-size="11" font-family="Arial, sans-serif" fill="#333">2.4 km2</text><text x="395.82" y="187" font-size="11" font-family="Arial, sans-serif" fill="#777">fallback: 5</text><text x="288" y="231" text-anchor="end" font-size="12" font-family="Arial, sans-serif" fill="#333">Global (van Zalk and Behrens, 2016) [Production density]</text><rect x="300" y="210" width="3.83" height="32" rx="6" fill="#f28e2b" opacity="0.88"/><text x="311.83" y="231" font-size="11" font-family="Arial, sans-serif" fill="#333">2.5 km2</text><text x="395.83" y="231" font-size="11" font-family="Arial, sans-serif" fill="#777">fallback: 5</text><text x="288" y="275" text-anchor="end" font-size="12" font-family="Arial, sans-serif" fill="#333">Global UNECE (2022) and OWID (2022) [Production density]</text><rect x="300" y="254" width="3.84" height="32" rx="6" fill="#4e79a7" opacity="0.88"/><text x="311.84" y="275" font-size="11" font-family="Arial, sans-serif" fill="#333">2.5 km2</text><text x="395.84" y="275" font-size="11" font-family="Arial, sans-serif" fill="#777">fallback: 5</text><text x="288" y="319" text-anchor="end" font-size="12" font-family="Arial, sans-serif" fill="#333">Global (Nøland, 2022) [Power density]</text><rect x="300" y="298" width="479.34" height="32" rx="6" fill="#af7aa1" opacity="0.88"/><text x="787.34" y="319" font-size="11" font-family="Arial, sans-serif" fill="#333">307.5 km2</text><text x="871.34" y="319" font-size="11" font-family="Arial, sans-serif" fill="#777">fallback: 4</text><text x="288" y="363" text-anchor="end" font-size="12" font-family="Arial, sans-serif" fill="#333">Global (Nøland, 2022) [Production density]</text><rect x="300" y="342" width="545.45" height="32" rx="6" fill="#1f77b4" opacity="0.88"/><text x="853.45" y="363" font-size="11" font-family="Arial, sans-serif" fill="#333">349.9 km2</text><text x="937.45" y="363" font-size="11" font-family="Arial, sans-serif" fill="#777">fallback: 4</text><text x="600.00" y="424" text-anchor="middle" font-size="12" font-family="Arial, sans-serif" fill="#666">Totalt markansprak (km2)</text></svg>