<svg xmlns="http://www.w3.org/2000/svg" width="980" height="520" viewBox="0 0 980 520" role="img"><rect width="100%" height="100%" fill="#ffffff" /><text x="72" y="30" font-size="22" font-family="Arial, sans-serif" fill="#222">Baslinjer fran TIMES-data</text><text x="72" y="50" font-size="13" font-family="Arial, sans-serif" fill="#555">Total energimangd per scenario och ar</text><line x1="72" y1="462" x2="760" y2="462" stroke="#777" stroke-width="1"/><line x1="72" y1="62" x2="72" y2="462" stroke="#777" stroke-width="1"/><line x1="72" y1="462.00" x2="760" y2="462.00" stroke="#ececec" stroke-width="1"/><text x="62" y="466.00" text-anchor="end" font-size="11" font-family="Arial, sans-serif" fill="#666">0</text><line x1="72" y1="362.00" x2="760" y2="362.00" stroke="#ececec" stroke-width="1"/><text x="62" y="366.00" text-anchor="end" font-size="11" font-family="Arial, sans-serif" fill="#666">14</text><line x1="72" y1="262.00" x2="760" y2="262.00" stroke="#ececec" stroke-width="1"/><text x="62" y="266.00" text-anchor="end" font-size="11" font-family="Arial, sans-serif" fill="#666">29</text><line x1="72" y1="162.00" x2="760" y2="162.00" stroke="#ececec" stroke-width="1"/><text x="62" y="166.00" text-anchor="end" font-size="11" font-family="Arial, sans-serif" fill="#666">43</text><line x1="72" y1="62.00" x2="760" y2="62.00" stroke="#ececec" stroke-width="1"/><text x="62" y="66.00" text-anchor="end" font-size="11" font-family="Arial, sans-serif" fill="#666">58</text><line x1="72.00" y1="62" x2="72.00" y2="462" stroke="#f2f2f2" stroke-width="1"/><text x="72.00" y="484" text-anchor="middle" font-size="11" font-family="Arial, sans-serif" fill="#666">2030</text><line x1="416.00" y1="62" x2="416.00" y2="462" stroke="#f2f2f2" stroke-width="1"/><text x="416.00" y="484" text-anchor="middle" font-size="11" font-family="Arial, sans-serif" fill="#666">2040</text><line x1="760.00" y1="62" x2="760.00" y2="462" stroke="#f2f2f2" stroke-width="1"/><text x="760.00" y="484" text-anchor="middle" font-size="11" font-family="Arial, sans-serif" fill="#666">2050</text><path d="M 72.00 441.90 L 416.00 442.69 L 760.00 443.73" fill="none" stroke="#1f77b4" stroke-width="3"/><circle cx="72.00" cy="441.90" r="4" fill="#1f77b4" /><circle cx="416.00" cy="442.69" r="4" fill="#1f77b4" /><circle cx="760.00" cy="443.73" r="4" fill="#1f77b4" /><path d="M 72.00 442.80 L 416.00 443.73 L 760.00 444.76" fill="none" stroke="#e15759" stroke-width="3"/><circle cx="72.00" cy="442.80" r="4" fill="#e15759" /><circle cx="416.00" cy="443.73" r="4" fill="#e15759" /><circle cx="760.00" cy="444.76" r="4" fill="#e15759" /><path d="M 72.00 441.87 L 416.00 260.22 L 760.00 98.36" fill="none" stroke="#59a14f" stroke-width="3"/><circle cx="72.00" cy="441.87" r="4" fill="#59a14f" /><circle cx="416.00" cy="260.22" r="4" fill="#59a14f" /><circle cx="760.00" cy="98.36" r="4" fill="#59a14f" /><text x="776" y="50" font-size="12" font-family="Arial, sans-serif" fill="#666">TWh</text><line x1="776" y1="62" x2="794" y2="62" stroke="#1f77b4" stroke-width="3"/><text x="802" y="66" font-size="11" font-family="Arial, sans-serif" fill="#444">Bornholm 2050 (Subannual Crit) [BASELINE2050]</text><line x1="776" y1="86" x2="794" y2="86" stroke="#e15759" stroke-width="3"/><text x="802" y="90" font-size="11" font-family="Arial, sans-serif" fill="#444">Baseline 2050 (4 weeks) [BASELINE2050-4W]</text><line x1="776" y1="110" x2="794" y2="110" stroke="#59a14f" stroke-width="3"/><text x="802" y="114" font-size="11" font-family="Arial, sans-serif" fill="#444">Bornholm Energy Island (Subannual Crit) [ENERGYISLAND2050]</text></svg>